HIERARCHY
ROOT Hips
{
    OFFSET 0.000000 0.000000 0.000000
    CHANNELS 6 Xposition Yposition Zposition Zrotation Xrotation Yrotation
    JOINT Spine
    {
        OFFSET -0.000000 14.517291 0.000000
        CHANNELS 3 Zrotation Xrotation Yrotation
        JOINT Spine1
        {
            OFFSET -0.000000 37.558300 0.000000
            CHANNELS 3 Zrotation Xrotation Yrotation
            JOINT Neck
            {
                OFFSET -0.000000 37.404057 3.400369
                CHANNELS 3 Zrotation Xrotation Yrotation
                JOINT Head
                {
                    OFFSET -0.000000 24.785618 -3.540803
                    CHANNELS 3 Zrotation Xrotation Yrotation
                    End Site
                    {
                        OFFSET -0.000000 35.408028 0.000000
                    }
                }
            }
            JOINT LeftShoulder
            {
                OFFSET 6.992933 33.973492 -0.192664
                CHANNELS 3 Zrotation Xrotation Yrotation
                JOINT LeftArm
                {
                    OFFSET 21.527611 0.000000 0.000000
                    CHANNELS 3 Zrotation Xrotation Yrotation
                    JOINT LeftForeArm
                    {
                        OFFSET 56.353916 0.000000 0.000000
                        CHANNELS 3 Zrotation Xrotation Yrotation
                        JOINT LeftHand
                        {
                            OFFSET 47.774071 0.000000 0.000000
                            CHANNELS 3 Zrotation Xrotation Yrotation
                            End Site
                            {
                                OFFSET 26.556021 0.000000 0.000000
                            }
                        }
                    }
                }
            }
            JOINT RightShoulder
            {
                OFFSET -7.065357 33.973492 -0.192664
                CHANNELS 3 Zrotation Xrotation Yrotation
                JOINT RightArm
                {
                    OFFSET -21.527611 0.000000 0.000000
                    CHANNELS 3 Zrotation Xrotation Yrotation
                    JOINT RightForeArm
                    {
                        OFFSET -56.353916 0.000000 0.000000
                        CHANNELS 3 Zrotation Xrotation Yrotation
                        JOINT RightHand
                        {
                            OFFSET -47.774071 0.000000 0.000000
                            CHANNELS 3 Zrotation Xrotation Yrotation
                            End Site
                            {
                                OFFSET -26.556021 0.000000 0.000000
                            }
                        }
                    }
                }
            }
        }
    }
    JOINT LeftUpLeg
    {
        OFFSET 17.704014 0.000000 0.000000
        CHANNELS 3 Zrotation Xrotation Yrotation
        JOINT LeftLeg
        {
            OFFSET -0.000000 -81.181816 0.000000
            CHANNELS 3 Zrotation Xrotation Yrotation
            JOINT LeftFoot
            {
                OFFSET -0.000000 -62.821102 0.000000
                CHANNELS 3 Zrotation Xrotation Yrotation
                JOINT LeftToeBase
                {
                    OFFSET -0.000000 -11.507608 26.556021
                    CHANNELS 3 Zrotation Xrotation Yrotation
                    End Site
                    {
                        OFFSET -0.000000 0.000000 7.081605
                    }
                }
            }
        }
    }
    JOINT RightUpLeg
    {
        OFFSET -17.704014 0.000000 0.000000
        CHANNELS 3 Zrotation Xrotation Yrotation
        JOINT RightLeg
        {
            OFFSET -0.000000 -81.181816 0.000000
            CHANNELS 3 Zrotation Xrotation Yrotation
            JOINT RightFoot
            {
                OFFSET -0.000000 -62.821102 0.000000
                CHANNELS 3 Zrotation Xrotation Yrotation
                JOINT RightToeBase
                {
                    OFFSET -0.000000 -11.507608 26.556021
                    CHANNELS 3 Zrotation Xrotation Yrotation
                    End Site
                    {
                        OFFSET -0.000000 0.000000 7.081605
                    }
                }
            }
        }
    }
}
MOTION
Frames:    4
Frame Time:    0.008333
17.918995    154.314880    -104.387581    0.664464    -6.275760    38.703011    -0.536956    -0.208471    0.715663    -3.376704    2.542813    0.314478    0.750569    -2.931660    -16.952015    13.574339    9.775688    -17.072147    4.324375    7.124044    -19.171213    -26.017309    23.424900    -54.588474    -5.801764    -5.926466    -107.058655    7.459764    -14.309137    -10.018231    -9.387368    0.250614    4.516804    36.306705    -15.907735    79.677177    -17.635269    -22.700361    63.616810    6.947322    -9.760286    38.825253    17.176828    -1.064547    0.932867    -14.987987    36.566811    -16.738386    6.573290    -29.207396    44.715607    0.000000    0.000000    0.000000    -17.792917    -16.236547    -12.715099    12.106894    30.800697    -12.985625    4.892751    -0.250920    -17.520466    0.000000    0.000000    0.000000    
17.948509    154.321930    -104.373840    0.649376    -6.278921    38.687374    -0.578048    -0.208556    0.683171    -3.347484    2.528072    0.302549    0.806744    -2.888204    -16.932121    13.557265    9.722870    -17.055325    4.339677    7.144454    -19.195782    -26.090395    23.409113    -54.519577    -5.788822    -5.962643    -107.081108    7.459940    -14.330213    -10.013027    -9.315218    0.292427    4.372647    36.054893    -16.073133    79.206047    -17.645649    -22.706554    63.613586    6.976426    -9.748635    38.857346    17.184622    -1.047214    0.938055    -14.987799    36.551361    -16.735210    6.570228    -29.218454    44.720394    0.000000    0.000000    0.000000    -17.778126    -16.224215    -12.700130    12.109096    30.770294    -12.990804    4.892948    -0.241382    -17.522886    0.000000    0.000000    0.000000    
17.975185    154.325836    -104.359970    0.632042    -6.281958    38.661217    -0.619669    -0.215907    0.654248    -3.313323    2.533286    0.292159    0.871152    -2.866607    -16.917521    13.515221    9.678738    -17.048008    4.363430    7.156743    -19.200193    -26.155369    23.400709    -54.473789    -5.771333    -6.024235    -107.095749    7.495582    -14.372612    -10.021486    -9.410336    1.555856    3.296115    36.473480    -16.644154    80.467766    -17.609354    -22.476633    63.118999    6.920497    -9.617645    39.353027    17.198362    -1.025676    0.951267    -14.994695    36.533436    -16.742205    6.589383    -29.220730    44.731567    0.000000    0.000000    0.000000    -17.758961    -16.224554    -12.665423    12.115117    30.752876    -12.987520    4.895307    -0.232346    -17.534166    0.000000    0.000000    0.000000    
18.003918    154.332520    -104.346260    0.618100    -6.280935    38.640762    -0.689218    -0.212360    0.643145    -3.252368    2.514949    0.286419    0.965591    -2.844711    -16.909328    13.421824    9.635864    -17.055632    4.403235    7.188812    -19.241879    -26.241526    23.367624    -54.434216    -5.756120    -6.070970    -107.090393    7.565799    -14.402915    -10.015837    -9.145234    0.290888    4.055201    35.545742    -16.365877    78.233009    -17.634283    -22.706791    63.548340    6.984522    -9.756373    39.019474    17.204199    -1.005348    0.974598    -14.997896    36.510418    -16.728558    6.599115    -29.213362    44.730053    0.000000    0.000000    0.000000    -17.745281    -16.223015    -12.649627    12.106733    30.734907    -12.980841    4.919351    -0.230432    -17.542326    0.000000    0.000000    0.000000    
